<?xml version="1.0" encoding="UTF-8" standalone="no"?>
<!-- Created with Inkscape (http://www.inkscape.org/) -->

<svg
   xmlns:dc="http://purl.org/dc/elements/1.1/"
   xmlns:cc="http://creativecommons.org/ns#"
   xmlns:rdf="http://www.w3.org/1999/02/22-rdf-syntax-ns#"
   xmlns:svg="http://www.w3.org/2000/svg"
   xmlns="http://www.w3.org/2000/svg"
   xmlns:sodipodi="http://sodipodi.sourceforge.net/DTD/sodipodi-0.dtd"
   xmlns:inkscape="http://www.inkscape.org/namespaces/inkscape"
   width="85.776047mm"
   height="55.009064mm"
   viewBox="0 0 303.93087 194.914"
   id="svg2"
   version="1.1"
   inkscape:version="0.91 r"
   sodipodi:docname="pyfispot_logo.svg"
   inkscape:export-filename="/home/humitos/Source/pyfispot/pyfispot_logo.png"
   inkscape:export-xdpi="148.06"
   inkscape:export-ydpi="148.06">
  <defs
     id="defs4">
    <inkscape:perspective
       sodipodi:type="inkscape:persp3d"
       inkscape:vp_z="2437.11 : 423.14552 : 1"
       inkscape:vp_x="1693.0156 : 423.14552 : 1"
       inkscape:vp_y="6.1230316e-14 : 999.99998 : 0"
       inkscape:persp3d-origin="2065.0628 : 247.75182 : 1"
       id="perspective10" />
    <inkscape:perspective
       sodipodi:type="inkscape:persp3d"
       inkscape:vp_z="744.09446 : 526.18108 : 1"
       inkscape:vp_x="0 : 526.18108 : 1"
       inkscape:vp_y="0 : 999.99997 : 0"
       inkscape:persp3d-origin="372.04723 : 350.78738 : 1"
       id="perspective2447" />
  </defs>
  <sodipodi:namedview
     id="base"
     pagecolor="#ffffff"
     bordercolor="#666666"
     borderopacity="1.0"
     inkscape:pageopacity="0.0"
     inkscape:pageshadow="2"
     inkscape:zoom="1.979899"
     inkscape:cx="144.59249"
     inkscape:cy="88.55581"
     inkscape:document-units="px"
     inkscape:current-layer="layer1"
     showgrid="false"
     showguides="true"
     inkscape:guide-bbox="true"
     fit-margin-top="0"
     fit-margin-left="0"
     fit-margin-right="0"
     fit-margin-bottom="0"
     inkscape:window-width="1366"
     inkscape:window-height="719"
     inkscape:window-x="0"
     inkscape:window-y="25"
     inkscape:window-maximized="1">
    <sodipodi:guide
       position="107.98407,45.127455"
       orientation="0,1"
       id="guide4320" />
    <sodipodi:guide
       position="64.800051,148.66808"
       orientation="0,1"
       id="guide4322" />
  </sodipodi:namedview>
  <metadata
     id="metadata7">
    <rdf:RDF>
      <cc:Work
         rdf:about="">
        <dc:format>image/svg+xml</dc:format>
        <dc:type
           rdf:resource="http://purl.org/dc/dcmitype/StillImage" />
        <dc:title />
      </cc:Work>
    </rdf:RDF>
  </metadata>
  <g
     inkscape:label="Capa 1"
     inkscape:groupmode="layer"
     id="layer1"
     transform="translate(-132.1797,-422.24812)">
    <polygon
       points="218.848,65.56 166.021,65.56 166.112,125.984 182.847,125.984 182.847,107.713 214.688,107.713 214.688,94.054 182.756,94.054 182.756,79.762 218.848,79.762 "
       id="polygon4286"
       transform="translate(132.14557,422.20512)" />
    <polygon
       points="298.971,52.511 302.039,44.395 302.039,53.928 303.965,53.928 303.965,41.428 300.43,41.428 297.936,50.214 295.379,41.459 292.127,41.459 292.127,53.771 294.021,53.771 294.021,44.269 296.977,52.525 "
       id="polygon4288"
       transform="translate(132.14557,422.20512)" />
    <path
       d="M 137.38281 0 C 88.390816 0 63.640625 37.123047 63.640625 37.123047 L 43.943359 37.123047 C 43.943359 37.123047 29.674437 35.481812 14.648438 50.507812 C -0.377563 65.533813 0 80.560547 0 80.560547 L 0 115.41016 C 0.252 115.41016 -1.1352814 130.18308 13.386719 144.70508 C 27.907719 159.22508 42.933594 158.3418 42.933594 158.3418 L 65.662109 158.3418 C 65.662109 158.3418 90.19263 194.91406 138.14062 194.91406 C 186.07963 194.91406 211.62891 158.08789 211.62891 158.08789 L 232.08398 158.08789 C 232.08398 158.08789 249.25758 159.60375 262.64258 146.21875 C 276.02658 132.83575 276.7832 126.64236 276.7832 118.69336 L 276.7832 80.560547 C 276.7832 75.221547 275.90537 67.900234 269.35938 57.740234 C 262.82938 47.608234 256.41606 43.483297 249.28906 39.904297 C 242.23806 36.363297 236.62891 36.617188 236.62891 36.617188 L 214.4043 36.617188 C 214.4043 36.617188 186.37481 0 137.38281 0 z M 178.38086 46.158203 L 233.91992 46.158203 C 243.35992 46.290203 250.69645 50.247547 257.43945 56.560547 C 263.68745 63.124547 267.75195 71.352563 267.75195 80.351562 L 267.75195 114.27344 L 267.75 114.27344 C 267.75 120.94944 265.95917 130.62711 257.07617 138.78711 C 248.19217 146.94511 241.34725 149.46094 234.28125 149.46094 L 126.27734 149.46094 C 126.27734 149.46094 144.91211 135.32044 144.91211 114.27344 L 144.91211 78.814453 C 144.91211 73.112453 147.83508 65.035062 156.58008 56.289062 C 165.32508 47.544062 173.03286 46.158203 178.38086 46.158203 z M 73.429688 50.259766 C 98.649198 50.259766 96.701172 62.876953 96.701172 62.876953 L 96.701172 83.726562 C 96.701172 96.336313 83.867188 96.128906 83.867188 96.128906 L 61.027344 96.128906 C 47.330534 96.128906 47.763672 109.60742 47.763672 109.60742 L 47.763672 120.90625 L 39.720703 120.90625 C 39.720703 120.90625 26.242188 121.76979 26.242188 97.419922 C 26.242188 73.070052 41.683594 74.822266 41.683594 74.822266 L 73.859375 74.822266 L 73.859375 71.566406 L 50.832031 71.566406 L 50.804688 60.724609 C 50.804688 60.724609 49.297227 50.259776 73.429688 50.259766 z M 60.732422 57.548828 C 58.441212 57.548828 56.587891 59.402139 56.587891 61.693359 C 56.587891 63.984569 58.441212 65.835938 60.732422 65.835938 C 63.023642 65.835938 64.87501 63.984569 64.875 61.693359 C 64.875 59.402139 63.023642 57.548828 60.732422 57.548828 z M 99.78125 74.177734 L 107.82422 74.177734 C 107.82422 74.177734 121.30274 73.314193 121.30273 97.664062 C 121.30273 122.01393 105.86133 120.26172 105.86133 120.26172 L 73.685547 120.26172 L 73.685547 123.51758 L 96.712891 123.51758 L 96.740234 134.35938 C 96.740234 134.35938 98.247704 144.82422 74.115234 144.82422 C 48.895724 144.82422 50.84375 132.20703 50.84375 132.20703 L 50.84375 111.35742 C 50.84375 98.747654 63.677734 98.955078 63.677734 98.955078 L 86.517578 98.955078 C 100.21439 98.955078 99.78125 85.476562 99.78125 85.476562 L 99.78125 74.177734 z M 86.8125 129.24805 C 84.52129 129.24805 82.669922 131.09941 82.669922 133.39062 C 82.669922 135.68185 84.52129 137.53516 86.8125 137.53516 C 89.10372 137.53516 90.957031 135.68186 90.957031 133.39062 C 90.957031 131.09941 89.10372 129.24805 86.8125 129.24805 z "
       id="path4290"
       transform="translate(132.1797,422.24812)" />
    <rect
       x="361.03458"
       y="504.63513"
       width="14.925"
       height="43.870998"
       id="rect4292" />
    <polygon
       points="280.163,43.543 283.888,43.543 283.888,53.802 286.256,53.802 286.256,43.575 289.917,43.575 289.917,41.333 280.163,41.365 "
       id="polygon4294"
       transform="translate(132.14557,422.20512)" />
    <path
       inkscape:connector-curvature="0"
       d="m 368.81357,484.55412 c -5.193,0 -9.408,3.444 -9.408,7.688 0,4.244 4.215,7.689 9.408,7.689 5.192,0 9.407,-3.445 9.407,-7.689 0,-4.244 -4.215,-7.688 -9.407,-7.688 z"
       id="path4296" />
  </g>
</svg>
